<svg xmlns="http://www.w3.org/2000/svg" xmlns:xlink="http://www.w3.org/1999/xlink" width="96" zoomAndPan="magnify" viewBox="0 0 72 72" height="96" preserveAspectRatio="xMidYMid meet" version="1.0"><defs><g/><clipPath id="9e28c6163e"><path d="M 55 27 L 67 27 L 67 38 L 55 38 Z M 55 27 " clip-rule="nonzero"/></clipPath><clipPath id="6e15c17c95"><path d="M 55.265625 33.832031 L 65.40625 26.101562 L 68.132812 29.683594 L 57.992188 37.414062 Z M 55.265625 33.832031 " clip-rule="nonzero"/></clipPath><clipPath id="6760c49fdb"><path d="M 51.324219 36.839844 L 65.640625 25.925781 L 68.367188 29.503906 L 54.054688 40.417969 Z M 51.324219 36.839844 " clip-rule="nonzero"/></clipPath><clipPath id="4b23f1647d"><path d="M 59 28 L 67 28 L 67 37 L 59 37 Z M 59 28 " clip-rule="nonzero"/></clipPath><clipPath id="f3daa447f3"><path d="M 55.265625 33.832031 L 65.40625 26.101562 L 68.132812 29.683594 L 57.992188 37.414062 Z M 55.265625 33.832031 " clip-rule="nonzero"/></clipPath><clipPath id="a149150d74"><path d="M 51.324219 36.839844 L 65.640625 25.925781 L 68.367188 29.503906 L 54.054688 40.417969 Z M 51.324219 36.839844 " clip-rule="nonzero"/></clipPath><clipPath id="d4a6eeb1f4"><path d="M 55 32 L 59 32 L 59 37 L 55 37 Z M 55 32 " clip-rule="nonzero"/></clipPath><clipPath id="cd56493898"><path d="M 55.265625 33.832031 L 65.40625 26.101562 L 68.132812 29.683594 L 57.992188 37.414062 Z M 55.265625 33.832031 " clip-rule="nonzero"/></clipPath><clipPath id="bd8dff7c1c"><path d="M 51.324219 36.839844 L 65.640625 25.925781 L 68.367188 29.503906 L 54.054688 40.417969 Z M 51.324219 36.839844 " clip-rule="nonzero"/></clipPath><clipPath id="e69e1f0953"><path d="M 58 29 L 62 29 L 62 34 L 58 34 Z M 58 29 " clip-rule="nonzero"/></clipPath><clipPath id="3a804659b0"><path d="M 58.054688 31.707031 L 60.441406 29.886719 L 61.804688 31.675781 L 59.417969 33.496094 Z M 58.054688 31.707031 " clip-rule="nonzero"/></clipPath><clipPath id="56af63427d"><path d="M 51.324219 36.839844 L 65.636719 25.925781 L 68.367188 29.503906 L 54.050781 40.417969 Z M 51.324219 36.839844 " clip-rule="nonzero"/></clipPath><clipPath id="ffa4141f99"><path d="M 59 29 L 62 29 L 62 34 L 59 34 Z M 59 29 " clip-rule="nonzero"/></clipPath><clipPath id="11a778e989"><path d="M 58.054688 31.707031 L 60.441406 29.886719 L 61.804688 31.675781 L 59.417969 33.496094 Z M 58.054688 31.707031 " clip-rule="nonzero"/></clipPath><clipPath id="ba1c3586ba"><path d="M 51.324219 36.839844 L 65.636719 25.925781 L 68.367188 29.503906 L 54.050781 40.417969 Z M 51.324219 36.839844 " clip-rule="nonzero"/></clipPath><clipPath id="fd8aef083c"><path d="M 58 32 L 59 32 L 59 34 L 58 34 Z M 58 32 " clip-rule="nonzero"/></clipPath><clipPath id="bc51df65e1"><path d="M 58.054688 31.707031 L 60.441406 29.886719 L 61.804688 31.675781 L 59.417969 33.496094 Z M 58.054688 31.707031 " clip-rule="nonzero"/></clipPath><clipPath id="d016583a71"><path d="M 51.324219 36.839844 L 65.636719 25.925781 L 68.367188 29.503906 L 54.050781 40.417969 Z M 51.324219 36.839844 " clip-rule="nonzero"/></clipPath></defs><rect x="-7.2" width="86.4" fill="#ffffff" y="-7.2" height="86.4" fill-opacity="1"/><rect x="-7.2" width="86.4" fill="#80d3ff" y="-7.2" height="86.4" fill-opacity="1"/><g fill="#ffffff" fill-opacity="1"><g transform="translate(8.350922, 36.961505)"><g><path d="M 0.046875 0 L 2.53125 -6.84375 L 4.53125 -6.84375 L 7 0 L 5.28125 0 L 4.84375 -1.34375 L 2.203125 -1.34375 L 1.765625 0 Z M 2.515625 -2.515625 L 4.546875 -2.515625 L 3.53125 -5.546875 L 3.515625 -5.546875 Z M 2.515625 -2.515625 "/></g></g></g><g fill="#ffffff" fill-opacity="1"><g transform="translate(15.409261, 36.961505)"><g><path d="M 2.1875 0 L 2.1875 -5.4375 L 0.140625 -5.4375 L 0.140625 -6.84375 L 5.875 -6.84375 L 5.875 -5.4375 L 3.828125 -5.4375 L 3.828125 0 Z M 2.1875 0 "/></g></g></g><g fill="#ffffff" fill-opacity="1"><g transform="translate(21.438659, 36.961505)"><g><path d="M 0.53125 0 L 0.53125 -6.84375 L 2.671875 -6.84375 L 4.671875 -1.828125 L 4.6875 -1.828125 L 6.703125 -6.84375 L 8.828125 -6.84375 L 8.828125 0 L 7.3125 0 L 7.3125 -4.8125 L 7.296875 -4.8125 L 5.34375 0 L 4 0 L 2.046875 -4.796875 L 2.03125 -4.796875 L 2.03125 0 Z M 0.53125 0 "/></g></g></g><g fill="#ffffff" fill-opacity="1"><g transform="translate(30.795285, 36.961505)"><g><path d="M 4.078125 0.234375 C 3.316406 0.234375 2.648438 0.0820312 2.078125 -0.21875 C 1.515625 -0.519531 1.070312 -0.941406 0.75 -1.484375 C 0.4375 -2.035156 0.28125 -2.679688 0.28125 -3.421875 C 0.28125 -4.160156 0.4375 -4.800781 0.75 -5.34375 C 1.070312 -5.894531 1.515625 -6.320312 2.078125 -6.625 C 2.648438 -6.925781 3.316406 -7.078125 4.078125 -7.078125 C 4.847656 -7.078125 5.515625 -6.925781 6.078125 -6.625 C 6.640625 -6.320312 7.078125 -5.894531 7.390625 -5.34375 C 7.710938 -4.800781 7.875 -4.160156 7.875 -3.421875 C 7.875 -2.679688 7.710938 -2.035156 7.390625 -1.484375 C 7.078125 -0.941406 6.640625 -0.519531 6.078125 -0.21875 C 5.515625 0.0820312 4.847656 0.234375 4.078125 0.234375 Z M 4.078125 -1.171875 C 4.515625 -1.171875 4.894531 -1.265625 5.21875 -1.453125 C 5.539062 -1.640625 5.789062 -1.898438 5.96875 -2.234375 C 6.144531 -2.578125 6.234375 -2.972656 6.234375 -3.421875 C 6.234375 -3.878906 6.144531 -4.273438 5.96875 -4.609375 C 5.789062 -4.953125 5.539062 -5.210938 5.21875 -5.390625 C 4.894531 -5.578125 4.515625 -5.671875 4.078125 -5.671875 C 3.648438 -5.671875 3.269531 -5.578125 2.9375 -5.390625 C 2.613281 -5.210938 2.363281 -4.953125 2.1875 -4.609375 C 2.019531 -4.273438 1.9375 -3.878906 1.9375 -3.421875 C 1.9375 -2.972656 2.019531 -2.578125 2.1875 -2.234375 C 2.363281 -1.898438 2.613281 -1.640625 2.9375 -1.453125 C 3.269531 -1.265625 3.648438 -1.171875 4.078125 -1.171875 Z M 4.078125 -1.171875 "/></g></g></g><g fill="#ffffff" fill-opacity="1"><g transform="translate(38.959493, 36.961505)"><g><path d="M 3.328125 0.234375 C 2.765625 0.234375 2.253906 0.148438 1.796875 -0.015625 C 1.347656 -0.191406 0.984375 -0.453125 0.703125 -0.796875 C 0.421875 -1.140625 0.257812 -1.5625 0.21875 -2.0625 L 1.703125 -2.328125 C 1.753906 -1.921875 1.929688 -1.59375 2.234375 -1.34375 C 2.546875 -1.101562 2.929688 -0.984375 3.390625 -0.984375 C 3.796875 -0.984375 4.117188 -1.066406 4.359375 -1.234375 C 4.597656 -1.398438 4.71875 -1.617188 4.71875 -1.890625 C 4.71875 -2.097656 4.628906 -2.265625 4.453125 -2.390625 C 4.273438 -2.523438 3.984375 -2.632812 3.578125 -2.71875 L 2.625 -2.90625 C 1.863281 -3.050781 1.304688 -3.28125 0.953125 -3.59375 C 0.609375 -3.90625 0.4375 -4.332031 0.4375 -4.875 C 0.4375 -5.320312 0.550781 -5.707031 0.78125 -6.03125 C 1.019531 -6.363281 1.347656 -6.617188 1.765625 -6.796875 C 2.179688 -6.984375 2.648438 -7.078125 3.171875 -7.078125 C 3.648438 -7.078125 4.082031 -6.992188 4.46875 -6.828125 C 4.851562 -6.671875 5.171875 -6.441406 5.421875 -6.140625 C 5.671875 -5.847656 5.820312 -5.503906 5.875 -5.109375 L 4.40625 -4.78125 C 4.363281 -5.113281 4.226562 -5.378906 4 -5.578125 C 3.769531 -5.773438 3.488281 -5.875 3.15625 -5.875 C 2.820312 -5.875 2.554688 -5.789062 2.359375 -5.625 C 2.160156 -5.46875 2.0625 -5.269531 2.0625 -5.03125 C 2.0625 -4.820312 2.140625 -4.65625 2.296875 -4.53125 C 2.460938 -4.414062 2.722656 -4.320312 3.078125 -4.25 L 4.046875 -4.0625 C 4.828125 -3.9375 5.398438 -3.707031 5.765625 -3.375 C 6.128906 -3.050781 6.3125 -2.613281 6.3125 -2.0625 C 6.3125 -1.582031 6.179688 -1.171875 5.921875 -0.828125 C 5.671875 -0.484375 5.320312 -0.21875 4.875 -0.03125 C 4.425781 0.144531 3.910156 0.234375 3.328125 0.234375 Z M 3.328125 0.234375 "/></g></g></g><g fill="#ffffff" fill-opacity="1"><g transform="translate(45.421625, 36.961505)"><g/></g></g><g fill="#ffffff" fill-opacity="1"><g transform="translate(47.546819, 36.961505)"><g><path d="M 0.046875 0 L 2.53125 -6.84375 L 4.53125 -6.84375 L 7 0 L 5.28125 0 L 4.84375 -1.34375 L 2.203125 -1.34375 L 1.765625 0 Z M 2.515625 -2.515625 L 4.546875 -2.515625 L 3.53125 -5.546875 L 3.515625 -5.546875 Z M 2.515625 -2.515625 "/></g></g></g><g fill="#ffffff" fill-opacity="1"><g transform="translate(54.605158, 36.961505)"><g><path d="M 5.421875 1.09375 C 5.648438 1.09375 5.859375 1.046875 6.046875 0.953125 C 6.234375 0.859375 6.382812 0.726562 6.5 0.5625 L 6.9375 1.46875 C 6.769531 1.6875 6.53125 1.863281 6.21875 2 C 5.914062 2.132812 5.578125 2.203125 5.203125 2.203125 C 4.640625 2.203125 4.203125 2.0625 3.890625 1.78125 C 3.585938 1.5 3.4375 1.113281 3.4375 0.625 L 3.4375 0.203125 C 2.789062 0.117188 2.234375 -0.0820312 1.765625 -0.40625 C 1.296875 -0.726562 0.929688 -1.144531 0.671875 -1.65625 C 0.410156 -2.164062 0.28125 -2.753906 0.28125 -3.421875 C 0.28125 -4.160156 0.4375 -4.800781 0.75 -5.34375 C 1.070312 -5.894531 1.515625 -6.320312 2.078125 -6.625 C 2.648438 -6.925781 3.316406 -7.078125 4.078125 -7.078125 C 4.847656 -7.078125 5.515625 -6.925781 6.078125 -6.625 C 6.640625 -6.320312 7.078125 -5.894531 7.390625 -5.34375 C 7.710938 -4.800781 7.875 -4.160156 7.875 -3.421875 C 7.875 -2.765625 7.742188 -2.175781 7.484375 -1.65625 C 7.222656 -1.144531 6.859375 -0.726562 6.390625 -0.40625 C 5.929688 -0.09375 5.378906 0.109375 4.734375 0.203125 L 4.734375 0.453125 C 4.734375 0.648438 4.796875 0.804688 4.921875 0.921875 C 5.046875 1.035156 5.210938 1.09375 5.421875 1.09375 Z M 1.9375 -3.421875 C 1.9375 -2.972656 2.019531 -2.578125 2.1875 -2.234375 C 2.363281 -1.898438 2.613281 -1.640625 2.9375 -1.453125 C 3.269531 -1.265625 3.648438 -1.171875 4.078125 -1.171875 C 4.515625 -1.171875 4.894531 -1.265625 5.21875 -1.453125 C 5.539062 -1.640625 5.789062 -1.898438 5.96875 -2.234375 C 6.144531 -2.578125 6.234375 -2.972656 6.234375 -3.421875 C 6.234375 -3.878906 6.144531 -4.273438 5.96875 -4.609375 C 5.789062 -4.953125 5.539062 -5.210938 5.21875 -5.390625 C 4.894531 -5.578125 4.515625 -5.671875 4.078125 -5.671875 C 3.648438 -5.671875 3.269531 -5.578125 2.9375 -5.390625 C 2.613281 -5.210938 2.363281 -4.953125 2.1875 -4.609375 C 2.019531 -4.273438 1.9375 -3.878906 1.9375 -3.421875 Z M 1.9375 -3.421875 "/></g></g></g><g clip-path="url(#9e28c6163e)"><g clip-path="url(#6e15c17c95)"><g clip-path="url(#6760c49fdb)"><path fill="#0375bc" d="M 66.652344 27.351562 C 66.652344 27.351562 66.585938 27.363281 66.457031 27.390625 C 66.390625 27.402344 66.3125 27.421875 66.21875 27.445312 C 66.128906 27.46875 66.019531 27.496094 65.902344 27.53125 C 65.667969 27.601562 65.386719 27.699219 65.070312 27.832031 C 65.03125 27.847656 64.992188 27.867188 64.953125 27.886719 C 64.910156 27.90625 64.871094 27.921875 64.828125 27.945312 C 64.746094 27.984375 64.664062 28.023438 64.578125 28.070312 C 64.40625 28.160156 64.230469 28.261719 64.050781 28.375 C 64.007812 28.402344 63.960938 28.429688 63.917969 28.460938 C 63.871094 28.488281 63.828125 28.519531 63.78125 28.550781 C 63.691406 28.617188 63.597656 28.679688 63.507812 28.75 C 63.324219 28.886719 63.140625 29.039062 62.960938 29.203125 C 62.601562 29.53125 62.25 29.917969 61.9375 30.355469 C 61.785156 30.570312 61.636719 30.804688 61.507812 31.046875 C 61.375 31.292969 61.253906 31.554688 61.136719 31.832031 C 61.019531 32.109375 60.90625 32.402344 60.785156 32.707031 C 60.664062 33.011719 60.535156 33.328125 60.390625 33.652344 C 60.246094 33.976562 60.082031 34.296875 59.894531 34.605469 C 59.867188 34.644531 59.847656 34.683594 59.820312 34.722656 C 59.796875 34.757812 59.769531 34.796875 59.746094 34.835938 C 59.71875 34.875 59.695312 34.910156 59.667969 34.949219 C 59.640625 34.984375 59.617188 35.023438 59.589844 35.058594 C 59.535156 35.128906 59.480469 35.203125 59.425781 35.269531 C 59.394531 35.304688 59.367188 35.339844 59.339844 35.375 L 59.296875 35.425781 C 59.28125 35.441406 59.265625 35.457031 59.253906 35.472656 C 59.019531 35.738281 58.769531 35.976562 58.511719 36.191406 C 58.253906 36.402344 57.984375 36.59375 57.714844 36.757812 C 57.441406 36.925781 57.167969 37.066406 56.898438 37.1875 C 56.625 37.308594 56.351562 37.410156 56.085938 37.488281 C 56.019531 37.511719 55.953125 37.527344 55.886719 37.546875 C 55.855469 37.554688 55.824219 37.5625 55.789062 37.574219 C 55.757812 37.582031 55.726562 37.589844 55.691406 37.597656 C 55.628906 37.613281 55.5625 37.625 55.5 37.640625 C 55.433594 37.65625 55.371094 37.664062 55.308594 37.679688 C 55.277344 37.683594 55.246094 37.691406 55.214844 37.695312 C 55.183594 37.699219 55.152344 37.703125 55.121094 37.710938 C 55.058594 37.71875 54.996094 37.726562 54.9375 37.734375 C 54.875 37.742188 54.8125 37.75 54.753906 37.753906 C 54.695312 37.761719 54.636719 37.765625 54.578125 37.769531 C 54.109375 37.800781 53.6875 37.78125 53.324219 37.730469 C 52.960938 37.679688 52.65625 37.601562 52.414062 37.523438 C 52.171875 37.445312 51.992188 37.367188 51.875 37.3125 C 51.753906 37.253906 51.691406 37.222656 51.691406 37.222656 C 51.691406 37.222656 51.761719 37.234375 51.890625 37.253906 C 52.019531 37.273438 52.210938 37.296875 52.457031 37.3125 C 52.699219 37.324219 52.996094 37.324219 53.335938 37.292969 C 53.675781 37.261719 54.058594 37.195312 54.464844 37.085938 C 54.519531 37.074219 54.570312 37.058594 54.621094 37.042969 C 54.671875 37.027344 54.722656 37.011719 54.777344 36.996094 C 54.828125 36.976562 54.882812 36.960938 54.933594 36.941406 C 54.960938 36.933594 54.988281 36.925781 55.015625 36.914062 C 55.039062 36.90625 55.066406 36.894531 55.09375 36.886719 C 55.148438 36.863281 55.203125 36.84375 55.257812 36.824219 C 55.308594 36.800781 55.363281 36.777344 55.417969 36.757812 C 55.445312 36.746094 55.472656 36.734375 55.5 36.722656 C 55.527344 36.707031 55.554688 36.695312 55.582031 36.683594 C 55.636719 36.65625 55.691406 36.632812 55.746094 36.605469 C 55.964844 36.5 56.1875 36.378906 56.40625 36.246094 C 56.625 36.109375 56.84375 35.960938 57.054688 35.796875 C 57.269531 35.632812 57.476562 35.449219 57.675781 35.253906 C 57.871094 35.0625 58.0625 34.851562 58.234375 34.625 C 58.246094 34.613281 58.257812 34.597656 58.269531 34.585938 L 58.300781 34.542969 C 58.320312 34.511719 58.34375 34.484375 58.363281 34.453125 C 58.40625 34.398438 58.445312 34.339844 58.488281 34.277344 C 58.507812 34.25 58.527344 34.21875 58.546875 34.1875 C 58.566406 34.160156 58.585938 34.128906 58.605469 34.097656 C 58.621094 34.066406 58.640625 34.035156 58.660156 34.003906 C 58.679688 33.972656 58.699219 33.941406 58.714844 33.910156 C 58.863281 33.652344 59 33.375 59.128906 33.082031 C 59.394531 32.496094 59.636719 31.878906 59.933594 31.277344 C 60.085938 30.976562 60.246094 30.679688 60.429688 30.398438 C 60.617188 30.117188 60.816406 29.859375 61.03125 29.621094 C 61.457031 29.144531 61.917969 28.761719 62.382812 28.453125 C 62.613281 28.300781 62.847656 28.167969 63.074219 28.050781 C 63.1875 27.992188 63.300781 27.941406 63.414062 27.890625 C 63.46875 27.867188 63.523438 27.84375 63.582031 27.820312 C 63.636719 27.792969 63.691406 27.773438 63.746094 27.753906 C 63.960938 27.667969 64.171875 27.601562 64.375 27.546875 C 64.472656 27.515625 64.570312 27.496094 64.667969 27.472656 C 64.714844 27.460938 64.761719 27.449219 64.808594 27.441406 C 64.855469 27.433594 64.898438 27.421875 64.945312 27.414062 C 65.304688 27.347656 65.617188 27.324219 65.871094 27.316406 C 65.996094 27.3125 66.109375 27.316406 66.207031 27.316406 C 66.304688 27.320312 66.386719 27.324219 66.453125 27.332031 C 66.582031 27.34375 66.652344 27.351562 66.652344 27.351562 " fill-opacity="1" fill-rule="nonzero"/></g></g></g><g clip-path="url(#4b23f1647d)"><g clip-path="url(#f3daa447f3)"><g clip-path="url(#a149150d74)"><path fill="#00507e" d="M 66.152344 28.480469 C 66.152344 28.480469 66.117188 28.488281 66.046875 28.5 C 65.976562 28.519531 65.875 28.539062 65.746094 28.585938 C 65.496094 28.667969 65.144531 28.835938 64.785156 29.125 C 64.421875 29.414062 64.046875 29.824219 63.722656 30.335938 C 63.679688 30.398438 63.640625 30.464844 63.601562 30.53125 C 63.5625 30.597656 63.523438 30.667969 63.484375 30.738281 C 63.445312 30.808594 63.410156 30.882812 63.371094 30.953125 C 63.335938 31.027344 63.296875 31.101562 63.261719 31.179688 C 63.117188 31.480469 62.976562 31.804688 62.832031 32.140625 C 62.6875 32.476562 62.546875 32.808594 62.394531 33.128906 C 62.242188 33.449219 62.078125 33.753906 61.902344 34.039062 C 61.550781 34.601562 61.144531 35.054688 60.753906 35.375 C 60.554688 35.53125 60.367188 35.660156 60.191406 35.753906 C 60.171875 35.769531 60.148438 35.777344 60.125 35.789062 C 60.105469 35.800781 60.085938 35.8125 60.0625 35.820312 C 60.023438 35.839844 59.984375 35.863281 59.945312 35.878906 C 59.90625 35.894531 59.867188 35.910156 59.832031 35.925781 C 59.8125 35.933594 59.796875 35.9375 59.777344 35.945312 C 59.761719 35.953125 59.746094 35.960938 59.730469 35.964844 C 59.664062 35.984375 59.605469 36.003906 59.554688 36.019531 C 59.503906 36.035156 59.457031 36.042969 59.425781 36.050781 C 59.355469 36.066406 59.316406 36.074219 59.316406 36.074219 C 59.316406 36.074219 59.351562 36.058594 59.414062 36.023438 C 59.445312 36.007812 59.484375 35.988281 59.53125 35.960938 C 59.574219 35.933594 59.625 35.902344 59.679688 35.867188 C 59.695312 35.859375 59.710938 35.847656 59.722656 35.839844 C 59.738281 35.828125 59.753906 35.816406 59.769531 35.808594 C 59.796875 35.785156 59.832031 35.761719 59.863281 35.738281 C 59.894531 35.714844 59.929688 35.6875 59.960938 35.660156 C 59.980469 35.648438 59.996094 35.632812 60.015625 35.621094 C 60.03125 35.605469 60.050781 35.589844 60.066406 35.574219 C 60.207031 35.453125 60.359375 35.300781 60.511719 35.125 C 60.816406 34.769531 61.121094 34.304688 61.394531 33.753906 C 61.527344 33.476562 61.660156 33.175781 61.789062 32.859375 C 61.917969 32.542969 62.050781 32.210938 62.199219 31.867188 C 62.34375 31.523438 62.5 31.191406 62.671875 30.875 C 62.71875 30.796875 62.761719 30.71875 62.804688 30.640625 C 62.855469 30.566406 62.898438 30.488281 62.945312 30.417969 C 62.996094 30.34375 63.042969 30.273438 63.09375 30.203125 C 63.144531 30.128906 63.195312 30.0625 63.246094 29.996094 C 63.667969 29.464844 64.148438 29.078125 64.59375 28.835938 C 64.816406 28.714844 65.03125 28.628906 65.222656 28.574219 C 65.417969 28.519531 65.585938 28.492188 65.726562 28.476562 C 65.863281 28.464844 65.972656 28.46875 66.042969 28.472656 C 66.113281 28.476562 66.152344 28.480469 66.152344 28.480469 " fill-opacity="1" fill-rule="nonzero"/></g></g></g><g clip-path="url(#d4a6eeb1f4)"><g clip-path="url(#cd56493898)"><g clip-path="url(#bd8dff7c1c)"><path fill="#00507e" d="M 58.539062 32.640625 C 58.539062 32.640625 58.53125 32.660156 58.515625 32.703125 C 58.507812 32.722656 58.5 32.75 58.488281 32.78125 C 58.476562 32.8125 58.464844 32.847656 58.449219 32.886719 C 58.386719 33.042969 58.289062 33.265625 58.136719 33.53125 C 58.101562 33.597656 58.058594 33.664062 58.015625 33.734375 C 57.972656 33.804688 57.921875 33.875 57.871094 33.949219 C 57.820312 34.023438 57.769531 34.101562 57.707031 34.175781 C 57.679688 34.210938 57.648438 34.25 57.617188 34.289062 C 57.585938 34.328125 57.554688 34.363281 57.523438 34.402344 C 57.390625 34.554688 57.246094 34.710938 57.082031 34.863281 C 56.921875 35.011719 56.746094 35.160156 56.558594 35.296875 C 56.371094 35.4375 56.175781 35.558594 55.984375 35.667969 C 55.792969 35.777344 55.601562 35.867188 55.417969 35.949219 C 55.371094 35.96875 55.324219 35.988281 55.277344 36.007812 C 55.234375 36.023438 55.1875 36.039062 55.140625 36.058594 C 55.054688 36.089844 54.964844 36.121094 54.878906 36.148438 C 54.792969 36.171875 54.710938 36.199219 54.628906 36.21875 C 54.589844 36.230469 54.550781 36.238281 54.511719 36.25 C 54.492188 36.253906 54.472656 36.257812 54.453125 36.261719 C 54.4375 36.265625 54.417969 36.269531 54.398438 36.273438 C 54.101562 36.335938 53.859375 36.367188 53.691406 36.375 C 53.648438 36.378906 53.609375 36.382812 53.578125 36.382812 C 53.546875 36.382812 53.519531 36.386719 53.496094 36.386719 C 53.453125 36.386719 53.429688 36.386719 53.429688 36.386719 C 53.429688 36.386719 53.515625 36.355469 53.671875 36.296875 C 53.828125 36.238281 54.050781 36.148438 54.316406 36.027344 C 54.332031 36.019531 54.351562 36.011719 54.367188 36.003906 C 54.382812 35.996094 54.402344 35.988281 54.417969 35.980469 C 54.453125 35.964844 54.488281 35.945312 54.523438 35.929688 C 54.59375 35.894531 54.667969 35.859375 54.746094 35.820312 C 54.820312 35.777344 54.898438 35.738281 54.976562 35.695312 C 55.015625 35.671875 55.058594 35.652344 55.097656 35.628906 C 55.140625 35.605469 55.179688 35.582031 55.222656 35.558594 C 55.386719 35.460938 55.554688 35.355469 55.726562 35.242188 C 55.898438 35.128906 56.074219 35.007812 56.25 34.878906 C 56.425781 34.75 56.597656 34.617188 56.757812 34.488281 C 56.917969 34.359375 57.066406 34.226562 57.207031 34.097656 C 57.242188 34.066406 57.277344 34.035156 57.3125 34.003906 C 57.34375 33.972656 57.378906 33.941406 57.410156 33.910156 C 57.476562 33.847656 57.539062 33.785156 57.601562 33.722656 C 57.660156 33.664062 57.71875 33.605469 57.773438 33.546875 C 57.824219 33.488281 57.878906 33.433594 57.929688 33.378906 C 58.125 33.160156 58.277344 32.976562 58.378906 32.84375 C 58.480469 32.714844 58.539062 32.640625 58.539062 32.640625 " fill-opacity="1" fill-rule="nonzero"/></g></g></g><g fill="#ffffff" fill-opacity="1"><g transform="translate(7.867442, 45.06894)"><g><path d="M 1.421875 0 L 1.046875 0 L 1.046875 -1.109375 L 0.015625 -2.734375 L 0.453125 -2.734375 L 1.234375 -1.421875 L 2.015625 -2.734375 L 2.453125 -2.734375 L 1.421875 -1.109375 Z M 1.421875 0 "/></g></g></g><g fill="#ffffff" fill-opacity="1"><g transform="translate(10.336564, 45.06894)"><g><path d="M 0.484375 -1 C 0.484375 -0.78125 0.53125 -0.597656 0.625 -0.453125 C 0.726562 -0.304688 0.875 -0.234375 1.0625 -0.234375 C 1.25 -0.234375 1.390625 -0.304688 1.484375 -0.453125 C 1.585938 -0.609375 1.640625 -0.789062 1.640625 -1 C 1.640625 -1.207031 1.585938 -1.382812 1.484375 -1.53125 C 1.390625 -1.675781 1.25 -1.75 1.0625 -1.75 C 0.882812 -1.75 0.742188 -1.679688 0.640625 -1.546875 C 0.535156 -1.410156 0.484375 -1.226562 0.484375 -1 Z M 0.140625 -1 C 0.140625 -1.289062 0.222656 -1.535156 0.390625 -1.734375 C 0.554688 -1.941406 0.78125 -2.046875 1.0625 -2.046875 C 1.351562 -2.046875 1.578125 -1.941406 1.734375 -1.734375 C 1.898438 -1.535156 1.984375 -1.289062 1.984375 -1 C 1.984375 -0.707031 1.898438 -0.457031 1.734375 -0.25 C 1.578125 -0.0390625 1.351562 0.0625 1.0625 0.0625 C 0.78125 0.0625 0.554688 -0.0351562 0.390625 -0.234375 C 0.222656 -0.441406 0.140625 -0.695312 0.140625 -1 Z M 0.140625 -1 "/></g></g></g><g fill="#ffffff" fill-opacity="1"><g transform="translate(12.467042, 45.06894)"><g><path d="M 0.234375 -2 L 0.5625 -2 L 0.5625 -0.671875 C 0.5625 -0.523438 0.59375 -0.414062 0.65625 -0.34375 C 0.726562 -0.269531 0.828125 -0.234375 0.953125 -0.234375 C 1.128906 -0.234375 1.265625 -0.289062 1.359375 -0.40625 C 1.453125 -0.53125 1.5 -0.691406 1.5 -0.890625 L 1.5 -2 L 1.84375 -2 L 1.84375 0 L 1.515625 0 L 1.515625 -0.296875 C 1.390625 -0.0546875 1.175781 0.0625 0.875 0.0625 C 0.6875 0.0625 0.53125 0.0078125 0.40625 -0.09375 C 0.289062 -0.195312 0.234375 -0.351562 0.234375 -0.5625 Z M 0.234375 -2 "/></g></g></g><g fill="#ffffff" fill-opacity="1"><g transform="translate(14.554725, 45.06894)"><g><path d="M 0.59375 0 L 0.25 0 L 0.25 -2 L 0.5625 -2 L 0.5625 -1.65625 L 0.578125 -1.65625 C 0.722656 -1.914062 0.910156 -2.046875 1.140625 -2.046875 C 1.171875 -2.046875 1.195312 -2.046875 1.21875 -2.046875 L 1.21875 -1.6875 L 1.09375 -1.6875 C 0.945312 -1.6875 0.828125 -1.632812 0.734375 -1.53125 C 0.640625 -1.4375 0.59375 -1.3125 0.59375 -1.15625 Z M 0.59375 0 "/></g></g></g><g fill="#ffffff" fill-opacity="1"><g transform="translate(15.795798, 45.06894)"><g/></g></g><g fill="#ffffff" fill-opacity="1"><g transform="translate(16.726138, 45.06894)"><g><path d="M 2.46875 0 L 2.109375 0 L 2.109375 -1.28125 L 0.671875 -1.28125 L 0.671875 0 L 0.3125 0 L 0.3125 -2.734375 L 0.671875 -2.734375 L 0.671875 -1.609375 L 2.109375 -1.609375 L 2.109375 -2.734375 L 2.46875 -2.734375 Z M 2.46875 0 "/></g></g></g><g fill="#ffffff" fill-opacity="1"><g transform="translate(19.507854, 45.06894)"><g><path d="M 0.484375 -1 C 0.484375 -0.78125 0.53125 -0.597656 0.625 -0.453125 C 0.726562 -0.304688 0.875 -0.234375 1.0625 -0.234375 C 1.25 -0.234375 1.390625 -0.304688 1.484375 -0.453125 C 1.585938 -0.609375 1.640625 -0.789062 1.640625 -1 C 1.640625 -1.207031 1.585938 -1.382812 1.484375 -1.53125 C 1.390625 -1.675781 1.25 -1.75 1.0625 -1.75 C 0.882812 -1.75 0.742188 -1.679688 0.640625 -1.546875 C 0.535156 -1.410156 0.484375 -1.226562 0.484375 -1 Z M 0.140625 -1 C 0.140625 -1.289062 0.222656 -1.535156 0.390625 -1.734375 C 0.554688 -1.941406 0.78125 -2.046875 1.0625 -2.046875 C 1.351562 -2.046875 1.578125 -1.941406 1.734375 -1.734375 C 1.898438 -1.535156 1.984375 -1.289062 1.984375 -1 C 1.984375 -0.707031 1.898438 -0.457031 1.734375 -0.25 C 1.578125 -0.0390625 1.351562 0.0625 1.0625 0.0625 C 0.78125 0.0625 0.554688 -0.0351562 0.390625 -0.234375 C 0.222656 -0.441406 0.140625 -0.695312 0.140625 -1 Z M 0.140625 -1 "/></g></g></g><g fill="#ffffff" fill-opacity="1"><g transform="translate(21.638332, 45.06894)"><g><path d="M 0.25 -2 L 0.5625 -2 L 0.5625 -1.71875 L 0.578125 -1.71875 C 0.722656 -1.9375 0.921875 -2.046875 1.171875 -2.046875 C 1.421875 -2.046875 1.597656 -1.941406 1.703125 -1.734375 C 1.804688 -1.847656 1.898438 -1.925781 1.984375 -1.96875 C 2.078125 -2.019531 2.1875 -2.046875 2.3125 -2.046875 C 2.488281 -2.046875 2.632812 -1.988281 2.75 -1.875 C 2.875 -1.769531 2.9375 -1.601562 2.9375 -1.375 L 2.9375 0 L 2.59375 0 L 2.59375 -1.28125 C 2.59375 -1.4375 2.5625 -1.550781 2.5 -1.625 C 2.445312 -1.707031 2.359375 -1.75 2.234375 -1.75 C 2.097656 -1.75 1.984375 -1.695312 1.890625 -1.59375 C 1.804688 -1.488281 1.765625 -1.363281 1.765625 -1.21875 L 1.765625 0 L 1.421875 0 L 1.421875 -1.375 C 1.421875 -1.488281 1.394531 -1.578125 1.34375 -1.640625 C 1.289062 -1.710938 1.210938 -1.75 1.109375 -1.75 C 0.953125 -1.75 0.828125 -1.6875 0.734375 -1.5625 C 0.640625 -1.445312 0.59375 -1.289062 0.59375 -1.09375 L 0.59375 0 L 0.25 0 Z M 0.25 -2 "/></g></g></g><g fill="#ffffff" fill-opacity="1"><g transform="translate(24.801487, 45.06894)"><g><path d="M 1.625 -1.15625 C 1.601562 -1.375 1.539062 -1.523438 1.4375 -1.609375 C 1.34375 -1.703125 1.21875 -1.75 1.0625 -1.75 C 0.894531 -1.75 0.757812 -1.691406 0.65625 -1.578125 C 0.5625 -1.460938 0.515625 -1.320312 0.515625 -1.15625 Z M 1.9375 -0.625 C 1.90625 -0.414062 1.804688 -0.242188 1.640625 -0.109375 C 1.492188 0.00390625 1.300781 0.0625 1.0625 0.0625 C 0.78125 0.0625 0.554688 -0.0234375 0.390625 -0.203125 C 0.234375 -0.390625 0.15625 -0.632812 0.15625 -0.9375 C 0.15625 -1.289062 0.238281 -1.5625 0.40625 -1.75 C 0.570312 -1.945312 0.804688 -2.046875 1.109375 -2.046875 C 1.378906 -2.046875 1.585938 -1.945312 1.734375 -1.75 C 1.890625 -1.550781 1.96875 -1.265625 1.96875 -0.890625 L 0.515625 -0.890625 C 0.515625 -0.679688 0.5625 -0.519531 0.65625 -0.40625 C 0.75 -0.289062 0.894531 -0.234375 1.09375 -0.234375 C 1.226562 -0.234375 1.34375 -0.273438 1.4375 -0.359375 C 1.539062 -0.441406 1.597656 -0.53125 1.609375 -0.625 Z M 1.9375 -0.625 "/></g></g></g><g fill="#ffffff" fill-opacity="1"><g transform="translate(26.913359, 45.06894)"><g><path d="M 0.21875 -2.734375 L 0.5 -2.734375 L 0.5 -1.765625 L 0.21875 -1.765625 Z M 0.21875 -2.734375 "/></g></g></g><g fill="#ffffff" fill-opacity="1"><g transform="translate(27.640885, 45.06894)"><g><path d="M 1.375 -1.421875 C 1.375 -1.546875 1.332031 -1.632812 1.25 -1.6875 C 1.164062 -1.738281 1.050781 -1.765625 0.90625 -1.765625 C 0.789062 -1.765625 0.691406 -1.738281 0.609375 -1.6875 C 0.535156 -1.632812 0.5 -1.566406 0.5 -1.484375 C 0.5 -1.410156 0.519531 -1.351562 0.5625 -1.3125 C 0.613281 -1.28125 0.71875 -1.25 0.875 -1.21875 L 1.203125 -1.125 C 1.398438 -1.070312 1.539062 -1.003906 1.625 -0.921875 C 1.71875 -0.847656 1.765625 -0.742188 1.765625 -0.609375 C 1.765625 -0.410156 1.691406 -0.25 1.546875 -0.125 C 1.398438 0 1.207031 0.0625 0.96875 0.0625 C 0.695312 0.0625 0.488281 0.00390625 0.34375 -0.109375 C 0.195312 -0.234375 0.125 -0.410156 0.125 -0.640625 L 0.453125 -0.640625 C 0.453125 -0.503906 0.492188 -0.398438 0.578125 -0.328125 C 0.671875 -0.265625 0.800781 -0.234375 0.96875 -0.234375 C 1.113281 -0.234375 1.226562 -0.257812 1.3125 -0.3125 C 1.394531 -0.375 1.4375 -0.453125 1.4375 -0.546875 C 1.4375 -0.617188 1.40625 -0.675781 1.34375 -0.71875 C 1.289062 -0.757812 1.1875 -0.796875 1.03125 -0.828125 L 0.640625 -0.9375 C 0.484375 -0.96875 0.367188 -1.023438 0.296875 -1.109375 C 0.222656 -1.191406 0.1875 -1.296875 0.1875 -1.421875 C 0.1875 -1.609375 0.253906 -1.757812 0.390625 -1.875 C 0.535156 -1.988281 0.71875 -2.046875 0.9375 -2.046875 C 1.175781 -2.046875 1.359375 -1.988281 1.484375 -1.875 C 1.617188 -1.757812 1.691406 -1.609375 1.703125 -1.421875 Z M 1.375 -1.421875 "/></g></g></g><g fill="#ffffff" fill-opacity="1"><g transform="translate(29.546222, 45.06894)"><g/></g></g><g fill="#ffffff" fill-opacity="1"><g transform="translate(30.476562, 45.06894)"><g><path d="M 1.671875 -1.125 L 1.265625 -2.328125 L 0.828125 -1.125 Z M 0.71875 -0.796875 L 0.421875 0 L 0.046875 0 L 1.078125 -2.734375 L 1.5 -2.734375 L 2.484375 0 L 2.078125 0 L 1.8125 -0.796875 Z M 0.71875 -0.796875 "/></g></g></g><g fill="#ffffff" fill-opacity="1"><g transform="translate(33.01825, 45.06894)"><g><path d="M 0.25 -2.359375 L 0.25 -2.734375 L 0.59375 -2.734375 L 0.59375 -2.359375 Z M 0.59375 0 L 0.25 0 L 0.25 -2 L 0.59375 -2 Z M 0.59375 0 "/></g></g></g><g fill="#ffffff" fill-opacity="1"><g transform="translate(33.857415, 45.06894)"><g><path d="M 0.59375 0 L 0.25 0 L 0.25 -2 L 0.5625 -2 L 0.5625 -1.65625 L 0.578125 -1.65625 C 0.722656 -1.914062 0.910156 -2.046875 1.140625 -2.046875 C 1.171875 -2.046875 1.195312 -2.046875 1.21875 -2.046875 L 1.21875 -1.6875 L 1.09375 -1.6875 C 0.945312 -1.6875 0.828125 -1.632812 0.734375 -1.53125 C 0.640625 -1.4375 0.59375 -1.3125 0.59375 -1.15625 Z M 0.59375 0 "/></g></g></g><g fill="#ffffff" fill-opacity="1"><g transform="translate(35.09849, 45.06894)"><g/></g></g><g fill="#ffffff" fill-opacity="1"><g transform="translate(36.02883, 45.06894)"><g><path d="M 1.921875 -1.9375 C 1.910156 -2.113281 1.84375 -2.25 1.71875 -2.34375 C 1.601562 -2.445312 1.445312 -2.5 1.25 -2.5 C 1.039062 -2.5 0.882812 -2.457031 0.78125 -2.375 C 0.675781 -2.289062 0.625 -2.171875 0.625 -2.015625 C 0.625 -1.929688 0.644531 -1.859375 0.6875 -1.796875 C 0.738281 -1.734375 0.820312 -1.691406 0.9375 -1.671875 L 1.71875 -1.484375 C 1.9375 -1.441406 2.09375 -1.351562 2.1875 -1.21875 C 2.289062 -1.09375 2.34375 -0.9375 2.34375 -0.75 C 2.34375 -0.476562 2.242188 -0.269531 2.046875 -0.125 C 1.847656 0.0078125 1.585938 0.078125 1.265625 0.078125 C 1.023438 0.078125 0.832031 0.046875 0.6875 -0.015625 C 0.550781 -0.078125 0.429688 -0.175781 0.328125 -0.3125 C 0.222656 -0.445312 0.171875 -0.640625 0.171875 -0.890625 L 0.515625 -0.890625 C 0.515625 -0.679688 0.582031 -0.519531 0.71875 -0.40625 C 0.851562 -0.300781 1.035156 -0.25 1.265625 -0.25 C 1.492188 -0.25 1.671875 -0.285156 1.796875 -0.359375 C 1.921875 -0.441406 1.984375 -0.554688 1.984375 -0.703125 C 1.984375 -0.835938 1.945312 -0.9375 1.875 -1 C 1.800781 -1.070312 1.65625 -1.132812 1.4375 -1.1875 L 0.84375 -1.3125 C 0.644531 -1.363281 0.5 -1.441406 0.40625 -1.546875 C 0.3125 -1.660156 0.265625 -1.800781 0.265625 -1.96875 C 0.265625 -2.207031 0.34375 -2.40625 0.5 -2.5625 C 0.664062 -2.726562 0.898438 -2.8125 1.203125 -2.8125 C 1.535156 -2.8125 1.789062 -2.738281 1.96875 -2.59375 C 2.15625 -2.457031 2.253906 -2.238281 2.265625 -1.9375 Z M 1.921875 -1.9375 "/></g></g></g><g fill="#ffffff" fill-opacity="1"><g transform="translate(38.551911, 45.06894)"><g><path d="M 1.46875 -1.015625 C 1.4375 -0.992188 1.382812 -0.972656 1.3125 -0.953125 C 1.238281 -0.941406 1.101562 -0.921875 0.90625 -0.890625 C 0.757812 -0.867188 0.648438 -0.832031 0.578125 -0.78125 C 0.515625 -0.726562 0.484375 -0.65625 0.484375 -0.5625 C 0.484375 -0.457031 0.507812 -0.375 0.5625 -0.3125 C 0.625 -0.25 0.71875 -0.21875 0.84375 -0.21875 C 1.007812 -0.21875 1.15625 -0.265625 1.28125 -0.359375 C 1.40625 -0.453125 1.46875 -0.5625 1.46875 -0.6875 Z M 0.234375 -1.390625 C 0.242188 -1.609375 0.316406 -1.769531 0.453125 -1.875 C 0.585938 -1.988281 0.789062 -2.046875 1.0625 -2.046875 C 1.269531 -2.046875 1.441406 -2 1.578125 -1.90625 C 1.722656 -1.8125 1.796875 -1.675781 1.796875 -1.5 L 1.796875 -0.34375 C 1.796875 -0.269531 1.832031 -0.234375 1.90625 -0.234375 C 1.9375 -0.234375 1.972656 -0.238281 2.015625 -0.25 L 2.015625 0 C 1.953125 0.0195312 1.890625 0.03125 1.828125 0.03125 C 1.710938 0.03125 1.625 0.0078125 1.5625 -0.03125 C 1.507812 -0.0820312 1.484375 -0.160156 1.484375 -0.265625 C 1.296875 -0.046875 1.054688 0.0625 0.765625 0.0625 C 0.578125 0.0625 0.425781 0.0078125 0.3125 -0.09375 C 0.195312 -0.207031 0.140625 -0.347656 0.140625 -0.515625 C 0.140625 -0.691406 0.1875 -0.832031 0.28125 -0.9375 C 0.382812 -1.050781 0.53125 -1.117188 0.71875 -1.140625 L 1.3125 -1.21875 C 1.414062 -1.226562 1.46875 -1.304688 1.46875 -1.453125 C 1.46875 -1.554688 1.429688 -1.632812 1.359375 -1.6875 C 1.285156 -1.738281 1.164062 -1.765625 1 -1.765625 C 0.863281 -1.765625 0.757812 -1.734375 0.6875 -1.671875 C 0.613281 -1.617188 0.566406 -1.523438 0.546875 -1.390625 Z M 0.234375 -1.390625 "/></g></g></g><g fill="#ffffff" fill-opacity="1"><g transform="translate(40.645175, 45.06894)"><g><path d="M 0.65625 -1.71875 L 0.65625 0 L 0.3125 0 L 0.3125 -1.71875 L 0.046875 -1.71875 L 0.046875 -2 L 0.3125 -2 L 0.3125 -2.34375 C 0.3125 -2.488281 0.359375 -2.597656 0.453125 -2.671875 C 0.546875 -2.742188 0.675781 -2.78125 0.84375 -2.78125 C 0.894531 -2.78125 0.941406 -2.773438 0.984375 -2.765625 L 0.984375 -2.46875 C 0.953125 -2.46875 0.910156 -2.46875 0.859375 -2.46875 C 0.785156 -2.46875 0.734375 -2.445312 0.703125 -2.40625 C 0.671875 -2.375 0.65625 -2.316406 0.65625 -2.234375 L 0.65625 -2 L 0.984375 -2 L 0.984375 -1.71875 Z M 0.65625 -1.71875 "/></g></g></g><g fill="#ffffff" fill-opacity="1"><g transform="translate(41.700181, 45.06894)"><g><path d="M 1.625 -1.15625 C 1.601562 -1.375 1.539062 -1.523438 1.4375 -1.609375 C 1.34375 -1.703125 1.21875 -1.75 1.0625 -1.75 C 0.894531 -1.75 0.757812 -1.691406 0.65625 -1.578125 C 0.5625 -1.460938 0.515625 -1.320312 0.515625 -1.15625 Z M 1.9375 -0.625 C 1.90625 -0.414062 1.804688 -0.242188 1.640625 -0.109375 C 1.492188 0.00390625 1.300781 0.0625 1.0625 0.0625 C 0.78125 0.0625 0.554688 -0.0234375 0.390625 -0.203125 C 0.234375 -0.390625 0.15625 -0.632812 0.15625 -0.9375 C 0.15625 -1.289062 0.238281 -1.5625 0.40625 -1.75 C 0.570312 -1.945312 0.804688 -2.046875 1.109375 -2.046875 C 1.378906 -2.046875 1.585938 -1.945312 1.734375 -1.75 C 1.890625 -1.550781 1.96875 -1.265625 1.96875 -0.890625 L 0.515625 -0.890625 C 0.515625 -0.679688 0.5625 -0.519531 0.65625 -0.40625 C 0.75 -0.289062 0.894531 -0.234375 1.09375 -0.234375 C 1.226562 -0.234375 1.34375 -0.273438 1.4375 -0.359375 C 1.539062 -0.441406 1.597656 -0.53125 1.609375 -0.625 Z M 1.9375 -0.625 "/></g></g></g><g fill="#ffffff" fill-opacity="1"><g transform="translate(43.812054, 45.06894)"><g><path d="M 0.65625 -1.71875 L 0.65625 -0.421875 C 0.65625 -0.367188 0.664062 -0.328125 0.6875 -0.296875 C 0.71875 -0.273438 0.769531 -0.265625 0.84375 -0.265625 L 0.96875 -0.265625 L 0.96875 0 C 0.851562 0.0195312 0.769531 0.03125 0.71875 0.03125 C 0.582031 0.03125 0.476562 0 0.40625 -0.0625 C 0.34375 -0.132812 0.3125 -0.25 0.3125 -0.40625 L 0.3125 -1.71875 L 0.046875 -1.71875 L 0.046875 -2 L 0.3125 -2 L 0.3125 -2.546875 L 0.65625 -2.546875 L 0.65625 -2 L 0.96875 -2 L 0.96875 -1.71875 Z M 0.65625 -1.71875 "/></g></g></g><g fill="#ffffff" fill-opacity="1"><g transform="translate(44.86706, 45.06894)"><g><path d="M 1.484375 -2 L 1.859375 -2 L 1.140625 -0.03125 C 1.128906 0 1.117188 0.03125 1.109375 0.0625 C 0.992188 0.351562 0.894531 0.550781 0.8125 0.65625 C 0.738281 0.757812 0.613281 0.8125 0.4375 0.8125 C 0.351562 0.8125 0.28125 0.800781 0.21875 0.78125 L 0.21875 0.484375 C 0.28125 0.503906 0.347656 0.515625 0.421875 0.515625 C 0.503906 0.515625 0.5625 0.488281 0.59375 0.4375 C 0.632812 0.382812 0.695312 0.257812 0.78125 0.0625 L 0.03125 -2 L 0.40625 -2 L 0.953125 -0.375 Z M 1.484375 -2 "/></g></g></g><g fill="#ffffff" fill-opacity="1"><g transform="translate(46.757511, 45.06894)"><g/></g></g><g fill="#ffffff" fill-opacity="1"><g transform="translate(47.687851, 45.06894)"><g><path d="M 1.46875 -1.46875 L 2.671875 -1.46875 L 2.671875 0 L 2.421875 0 L 2.34375 -0.359375 C 2.226562 -0.203125 2.085938 -0.0859375 1.921875 -0.015625 C 1.765625 0.046875 1.601562 0.078125 1.4375 0.078125 C 1.164062 0.078125 0.9375 0.0195312 0.75 -0.09375 C 0.5625 -0.21875 0.414062 -0.382812 0.3125 -0.59375 C 0.21875 -0.8125 0.171875 -1.078125 0.171875 -1.390625 C 0.171875 -1.785156 0.285156 -2.117188 0.515625 -2.390625 C 0.753906 -2.671875 1.070312 -2.8125 1.46875 -2.8125 C 1.757812 -2.8125 2.015625 -2.726562 2.234375 -2.5625 C 2.453125 -2.394531 2.582031 -2.175781 2.625 -1.90625 L 2.265625 -1.90625 C 2.222656 -2.082031 2.128906 -2.222656 1.984375 -2.328125 C 1.847656 -2.429688 1.664062 -2.484375 1.4375 -2.484375 C 1.175781 -2.484375 0.960938 -2.378906 0.796875 -2.171875 C 0.628906 -1.972656 0.546875 -1.707031 0.546875 -1.375 C 0.546875 -0.988281 0.625 -0.703125 0.78125 -0.515625 C 0.945312 -0.335938 1.171875 -0.25 1.453125 -0.25 C 1.640625 -0.25 1.796875 -0.285156 1.921875 -0.359375 C 2.046875 -0.429688 2.144531 -0.523438 2.21875 -0.640625 C 2.289062 -0.765625 2.328125 -0.929688 2.328125 -1.140625 L 1.46875 -1.140625 Z M 1.46875 -1.46875 "/></g></g></g><g fill="#ffffff" fill-opacity="1"><g transform="translate(50.625865, 45.06894)"><g><path d="M 0.234375 -2 L 0.5625 -2 L 0.5625 -0.671875 C 0.5625 -0.523438 0.59375 -0.414062 0.65625 -0.34375 C 0.726562 -0.269531 0.828125 -0.234375 0.953125 -0.234375 C 1.128906 -0.234375 1.265625 -0.289062 1.359375 -0.40625 C 1.453125 -0.53125 1.5 -0.691406 1.5 -0.890625 L 1.5 -2 L 1.84375 -2 L 1.84375 0 L 1.515625 0 L 1.515625 -0.296875 C 1.390625 -0.0546875 1.175781 0.0625 0.875 0.0625 C 0.6875 0.0625 0.53125 0.0078125 0.40625 -0.09375 C 0.289062 -0.195312 0.234375 -0.351562 0.234375 -0.5625 Z M 0.234375 -2 "/></g></g></g><g fill="#ffffff" fill-opacity="1"><g transform="translate(52.713545, 45.06894)"><g><path d="M 1.46875 -1.015625 C 1.4375 -0.992188 1.382812 -0.972656 1.3125 -0.953125 C 1.238281 -0.941406 1.101562 -0.921875 0.90625 -0.890625 C 0.757812 -0.867188 0.648438 -0.832031 0.578125 -0.78125 C 0.515625 -0.726562 0.484375 -0.65625 0.484375 -0.5625 C 0.484375 -0.457031 0.507812 -0.375 0.5625 -0.3125 C 0.625 -0.25 0.71875 -0.21875 0.84375 -0.21875 C 1.007812 -0.21875 1.15625 -0.265625 1.28125 -0.359375 C 1.40625 -0.453125 1.46875 -0.5625 1.46875 -0.6875 Z M 0.234375 -1.390625 C 0.242188 -1.609375 0.316406 -1.769531 0.453125 -1.875 C 0.585938 -1.988281 0.789062 -2.046875 1.0625 -2.046875 C 1.269531 -2.046875 1.441406 -2 1.578125 -1.90625 C 1.722656 -1.8125 1.796875 -1.675781 1.796875 -1.5 L 1.796875 -0.34375 C 1.796875 -0.269531 1.832031 -0.234375 1.90625 -0.234375 C 1.9375 -0.234375 1.972656 -0.238281 2.015625 -0.25 L 2.015625 0 C 1.953125 0.0195312 1.890625 0.03125 1.828125 0.03125 C 1.710938 0.03125 1.625 0.0078125 1.5625 -0.03125 C 1.507812 -0.0820312 1.484375 -0.160156 1.484375 -0.265625 C 1.296875 -0.046875 1.054688 0.0625 0.765625 0.0625 C 0.578125 0.0625 0.425781 0.0078125 0.3125 -0.09375 C 0.195312 -0.207031 0.140625 -0.347656 0.140625 -0.515625 C 0.140625 -0.691406 0.1875 -0.832031 0.28125 -0.9375 C 0.382812 -1.050781 0.53125 -1.117188 0.71875 -1.140625 L 1.3125 -1.21875 C 1.414062 -1.226562 1.46875 -1.304688 1.46875 -1.453125 C 1.46875 -1.554688 1.429688 -1.632812 1.359375 -1.6875 C 1.285156 -1.738281 1.164062 -1.765625 1 -1.765625 C 0.863281 -1.765625 0.757812 -1.734375 0.6875 -1.671875 C 0.613281 -1.617188 0.566406 -1.523438 0.546875 -1.390625 Z M 0.234375 -1.390625 "/></g></g></g><g fill="#ffffff" fill-opacity="1"><g transform="translate(54.806809, 45.06894)"><g><path d="M 0.59375 0 L 0.25 0 L 0.25 -2 L 0.5625 -2 L 0.5625 -1.65625 L 0.578125 -1.65625 C 0.722656 -1.914062 0.910156 -2.046875 1.140625 -2.046875 C 1.171875 -2.046875 1.195312 -2.046875 1.21875 -2.046875 L 1.21875 -1.6875 L 1.09375 -1.6875 C 0.945312 -1.6875 0.828125 -1.632812 0.734375 -1.53125 C 0.640625 -1.4375 0.59375 -1.3125 0.59375 -1.15625 Z M 0.59375 0 "/></g></g></g><g fill="#ffffff" fill-opacity="1"><g transform="translate(56.047883, 45.06894)"><g><path d="M 0.5 -1 C 0.5 -0.757812 0.546875 -0.570312 0.640625 -0.4375 C 0.742188 -0.300781 0.875 -0.234375 1.03125 -0.234375 C 1.1875 -0.234375 1.316406 -0.289062 1.421875 -0.40625 C 1.523438 -0.519531 1.578125 -0.6875 1.578125 -0.90625 C 1.578125 -1.1875 1.53125 -1.394531 1.4375 -1.53125 C 1.351562 -1.675781 1.222656 -1.75 1.046875 -1.75 C 0.867188 -1.75 0.734375 -1.691406 0.640625 -1.578125 C 0.546875 -1.460938 0.5 -1.269531 0.5 -1 Z M 1.921875 0 L 1.609375 0 L 1.609375 -0.28125 L 1.59375 -0.28125 C 1.46875 -0.0507812 1.273438 0.0625 1.015625 0.0625 C 0.742188 0.0625 0.53125 -0.0390625 0.375 -0.25 C 0.226562 -0.46875 0.15625 -0.738281 0.15625 -1.0625 C 0.15625 -1.351562 0.226562 -1.585938 0.375 -1.765625 C 0.53125 -1.953125 0.734375 -2.046875 0.984375 -2.046875 C 1.234375 -2.046875 1.429688 -1.9375 1.578125 -1.71875 L 1.59375 -1.734375 L 1.59375 -2.734375 L 1.921875 -2.734375 Z M 1.921875 0 "/></g></g></g><g fill="#ffffff" fill-opacity="1"><g transform="translate(58.219297, 45.06894)"><g><path d="M 0.25 -2.359375 L 0.25 -2.734375 L 0.59375 -2.734375 L 0.59375 -2.359375 Z M 0.59375 0 L 0.25 0 L 0.25 -2 L 0.59375 -2 Z M 0.59375 0 "/></g></g></g><g fill="#ffffff" fill-opacity="1"><g transform="translate(59.058465, 45.06894)"><g><path d="M 1.46875 -1.015625 C 1.4375 -0.992188 1.382812 -0.972656 1.3125 -0.953125 C 1.238281 -0.941406 1.101562 -0.921875 0.90625 -0.890625 C 0.757812 -0.867188 0.648438 -0.832031 0.578125 -0.78125 C 0.515625 -0.726562 0.484375 -0.65625 0.484375 -0.5625 C 0.484375 -0.457031 0.507812 -0.375 0.5625 -0.3125 C 0.625 -0.25 0.71875 -0.21875 0.84375 -0.21875 C 1.007812 -0.21875 1.15625 -0.265625 1.28125 -0.359375 C 1.40625 -0.453125 1.46875 -0.5625 1.46875 -0.6875 Z M 0.234375 -1.390625 C 0.242188 -1.609375 0.316406 -1.769531 0.453125 -1.875 C 0.585938 -1.988281 0.789062 -2.046875 1.0625 -2.046875 C 1.269531 -2.046875 1.441406 -2 1.578125 -1.90625 C 1.722656 -1.8125 1.796875 -1.675781 1.796875 -1.5 L 1.796875 -0.34375 C 1.796875 -0.269531 1.832031 -0.234375 1.90625 -0.234375 C 1.9375 -0.234375 1.972656 -0.238281 2.015625 -0.25 L 2.015625 0 C 1.953125 0.0195312 1.890625 0.03125 1.828125 0.03125 C 1.710938 0.03125 1.625 0.0078125 1.5625 -0.03125 C 1.507812 -0.0820312 1.484375 -0.160156 1.484375 -0.265625 C 1.296875 -0.046875 1.054688 0.0625 0.765625 0.0625 C 0.578125 0.0625 0.425781 0.0078125 0.3125 -0.09375 C 0.195312 -0.207031 0.140625 -0.347656 0.140625 -0.515625 C 0.140625 -0.691406 0.1875 -0.832031 0.28125 -0.9375 C 0.382812 -1.050781 0.53125 -1.117188 0.71875 -1.140625 L 1.3125 -1.21875 C 1.414062 -1.226562 1.46875 -1.304688 1.46875 -1.453125 C 1.46875 -1.554688 1.429688 -1.632812 1.359375 -1.6875 C 1.285156 -1.738281 1.164062 -1.765625 1 -1.765625 C 0.863281 -1.765625 0.757812 -1.734375 0.6875 -1.671875 C 0.613281 -1.617188 0.566406 -1.523438 0.546875 -1.390625 Z M 0.234375 -1.390625 "/></g></g></g><g fill="#ffffff" fill-opacity="1"><g transform="translate(61.151729, 45.06894)"><g><path d="M 1.875 0 L 1.546875 0 L 1.546875 -1.234375 C 1.546875 -1.421875 1.507812 -1.550781 1.4375 -1.625 C 1.375 -1.707031 1.265625 -1.75 1.109375 -1.75 C 0.960938 -1.75 0.835938 -1.691406 0.734375 -1.578125 C 0.640625 -1.460938 0.59375 -1.300781 0.59375 -1.09375 L 0.59375 0 L 0.25 0 L 0.25 -2 L 0.5625 -2 L 0.5625 -1.71875 L 0.578125 -1.71875 C 0.734375 -1.9375 0.929688 -2.046875 1.171875 -2.046875 C 1.398438 -2.046875 1.570312 -1.984375 1.6875 -1.859375 C 1.8125 -1.742188 1.875 -1.578125 1.875 -1.359375 Z M 1.875 0 "/></g></g></g><g fill="#ffffff" fill-opacity="1"><g transform="translate(54.636167, 36.961505)"><g><path d="M 5.421875 1.09375 C 5.648438 1.09375 5.859375 1.046875 6.046875 0.953125 C 6.234375 0.859375 6.382812 0.726562 6.5 0.5625 L 6.9375 1.46875 C 6.769531 1.6875 6.53125 1.863281 6.21875 2 C 5.914062 2.132812 5.578125 2.203125 5.203125 2.203125 C 4.640625 2.203125 4.203125 2.0625 3.890625 1.78125 C 3.585938 1.5 3.4375 1.113281 3.4375 0.625 L 3.4375 0.203125 C 2.789062 0.117188 2.234375 -0.0820312 1.765625 -0.40625 C 1.296875 -0.726562 0.929688 -1.144531 0.671875 -1.65625 C 0.410156 -2.164062 0.28125 -2.753906 0.28125 -3.421875 C 0.28125 -4.160156 0.4375 -4.800781 0.75 -5.34375 C 1.070312 -5.894531 1.515625 -6.320312 2.078125 -6.625 C 2.648438 -6.925781 3.316406 -7.078125 4.078125 -7.078125 C 4.847656 -7.078125 5.515625 -6.925781 6.078125 -6.625 C 6.640625 -6.320312 7.078125 -5.894531 7.390625 -5.34375 C 7.710938 -4.800781 7.875 -4.160156 7.875 -3.421875 C 7.875 -2.765625 7.742188 -2.175781 7.484375 -1.65625 C 7.222656 -1.144531 6.859375 -0.726562 6.390625 -0.40625 C 5.929688 -0.09375 5.378906 0.109375 4.734375 0.203125 L 4.734375 0.453125 C 4.734375 0.648438 4.796875 0.804688 4.921875 0.921875 C 5.046875 1.035156 5.210938 1.09375 5.421875 1.09375 Z M 1.9375 -3.421875 C 1.9375 -2.972656 2.019531 -2.578125 2.1875 -2.234375 C 2.363281 -1.898438 2.613281 -1.640625 2.9375 -1.453125 C 3.269531 -1.265625 3.648438 -1.171875 4.078125 -1.171875 C 4.515625 -1.171875 4.894531 -1.265625 5.21875 -1.453125 C 5.539062 -1.640625 5.789062 -1.898438 5.96875 -2.234375 C 6.144531 -2.578125 6.234375 -2.972656 6.234375 -3.421875 C 6.234375 -3.878906 6.144531 -4.273438 5.96875 -4.609375 C 5.789062 -4.953125 5.539062 -5.210938 5.21875 -5.390625 C 4.894531 -5.578125 4.515625 -5.671875 4.078125 -5.671875 C 3.648438 -5.671875 3.269531 -5.578125 2.9375 -5.390625 C 2.613281 -5.210938 2.363281 -4.953125 2.1875 -4.609375 C 2.019531 -4.273438 1.9375 -3.878906 1.9375 -3.421875 Z M 1.9375 -3.421875 "/></g></g></g><g clip-path="url(#e69e1f0953)"><g clip-path="url(#3a804659b0)"><g clip-path="url(#56af63427d)"><path fill="#0375bc" d="M 66.652344 27.351562 C 66.652344 27.351562 66.582031 27.363281 66.453125 27.390625 C 66.390625 27.40625 66.3125 27.421875 66.21875 27.445312 C 66.125 27.46875 66.019531 27.496094 65.902344 27.53125 C 65.667969 27.601562 65.382812 27.699219 65.070312 27.835938 C 65.03125 27.851562 64.992188 27.871094 64.949219 27.886719 C 64.910156 27.90625 64.871094 27.925781 64.828125 27.945312 C 64.746094 27.984375 64.660156 28.023438 64.578125 28.070312 C 64.40625 28.160156 64.230469 28.261719 64.050781 28.375 C 64.007812 28.402344 63.960938 28.429688 63.914062 28.460938 C 63.871094 28.492188 63.824219 28.519531 63.78125 28.550781 C 63.6875 28.617188 63.597656 28.679688 63.507812 28.75 C 63.324219 28.890625 63.140625 29.039062 62.960938 29.203125 C 62.597656 29.535156 62.25 29.917969 61.9375 30.355469 C 61.78125 30.574219 61.636719 30.804688 61.507812 31.046875 C 61.375 31.292969 61.253906 31.554688 61.136719 31.832031 C 61.019531 32.109375 60.902344 32.402344 60.78125 32.707031 C 60.664062 33.011719 60.535156 33.332031 60.390625 33.652344 C 60.242188 33.976562 60.082031 34.296875 59.890625 34.605469 C 59.867188 34.644531 59.847656 34.683594 59.820312 34.722656 C 59.792969 34.761719 59.769531 34.796875 59.742188 34.835938 C 59.71875 34.875 59.691406 34.910156 59.667969 34.949219 C 59.640625 34.984375 59.613281 35.023438 59.585938 35.058594 C 59.535156 35.132812 59.480469 35.203125 59.421875 35.269531 C 59.394531 35.304688 59.367188 35.339844 59.339844 35.375 L 59.296875 35.425781 C 59.28125 35.441406 59.265625 35.457031 59.25 35.476562 C 59.019531 35.742188 58.769531 35.976562 58.511719 36.191406 C 58.25 36.40625 57.984375 36.59375 57.714844 36.761719 C 57.441406 36.925781 57.167969 37.066406 56.894531 37.1875 C 56.621094 37.308594 56.351562 37.410156 56.085938 37.488281 C 56.019531 37.511719 55.953125 37.527344 55.886719 37.546875 C 55.855469 37.554688 55.820312 37.566406 55.789062 37.574219 C 55.757812 37.582031 55.722656 37.589844 55.691406 37.597656 C 55.625 37.613281 55.5625 37.628906 55.496094 37.640625 C 55.433594 37.65625 55.371094 37.667969 55.304688 37.679688 C 55.273438 37.683594 55.242188 37.691406 55.210938 37.695312 C 55.179688 37.703125 55.148438 37.707031 55.117188 37.710938 C 55.058594 37.71875 54.996094 37.726562 54.933594 37.738281 C 54.875 37.742188 54.8125 37.75 54.753906 37.753906 C 54.695312 37.761719 54.636719 37.769531 54.578125 37.769531 C 54.109375 37.800781 53.6875 37.78125 53.324219 37.730469 C 52.960938 37.679688 52.65625 37.601562 52.414062 37.523438 C 52.171875 37.445312 51.992188 37.367188 51.871094 37.3125 C 51.753906 37.253906 51.691406 37.222656 51.691406 37.222656 C 51.691406 37.222656 51.757812 37.234375 51.890625 37.253906 C 52.019531 37.273438 52.210938 37.296875 52.453125 37.3125 C 52.699219 37.324219 52.996094 37.324219 53.335938 37.292969 C 53.675781 37.261719 54.058594 37.195312 54.464844 37.085938 C 54.515625 37.074219 54.566406 37.058594 54.621094 37.042969 C 54.671875 37.027344 54.722656 37.011719 54.777344 36.996094 C 54.828125 36.980469 54.878906 36.960938 54.933594 36.941406 C 54.960938 36.933594 54.988281 36.925781 55.011719 36.917969 C 55.039062 36.90625 55.066406 36.894531 55.09375 36.886719 C 55.148438 36.867188 55.199219 36.84375 55.253906 36.824219 C 55.308594 36.800781 55.363281 36.78125 55.417969 36.757812 C 55.445312 36.746094 55.472656 36.734375 55.5 36.722656 C 55.527344 36.710938 55.554688 36.695312 55.582031 36.683594 C 55.636719 36.660156 55.691406 36.636719 55.746094 36.609375 C 55.964844 36.5 56.183594 36.378906 56.40625 36.246094 C 56.625 36.109375 56.84375 35.960938 57.054688 35.796875 C 57.269531 35.632812 57.472656 35.449219 57.671875 35.257812 C 57.871094 35.0625 58.0625 34.851562 58.234375 34.625 C 58.246094 34.613281 58.257812 34.597656 58.269531 34.585938 L 58.300781 34.542969 C 58.320312 34.511719 58.34375 34.484375 58.363281 34.457031 C 58.40625 34.398438 58.445312 34.339844 58.484375 34.277344 C 58.507812 34.25 58.527344 34.21875 58.546875 34.191406 C 58.566406 34.160156 58.585938 34.128906 58.601562 34.097656 C 58.621094 34.066406 58.640625 34.035156 58.660156 34.003906 C 58.679688 33.976562 58.695312 33.941406 58.714844 33.910156 C 58.863281 33.652344 58.996094 33.375 59.128906 33.082031 C 59.394531 32.5 59.636719 31.878906 59.933594 31.277344 C 60.082031 30.976562 60.246094 30.679688 60.429688 30.402344 C 60.613281 30.117188 60.816406 29.859375 61.027344 29.621094 C 61.453125 29.148438 61.917969 28.761719 62.382812 28.457031 C 62.613281 28.300781 62.847656 28.167969 63.074219 28.050781 C 63.1875 27.992188 63.300781 27.941406 63.414062 27.890625 C 63.46875 27.867188 63.523438 27.84375 63.578125 27.820312 C 63.632812 27.796875 63.691406 27.777344 63.742188 27.753906 C 63.960938 27.671875 64.171875 27.601562 64.371094 27.546875 C 64.472656 27.515625 64.570312 27.496094 64.664062 27.472656 C 64.714844 27.460938 64.761719 27.453125 64.808594 27.441406 C 64.855469 27.433594 64.898438 27.421875 64.945312 27.414062 C 65.304688 27.351562 65.617188 27.324219 65.867188 27.316406 C 65.996094 27.3125 66.109375 27.316406 66.207031 27.316406 C 66.300781 27.320312 66.382812 27.328125 66.449219 27.332031 C 66.582031 27.34375 66.652344 27.351562 66.652344 27.351562 " fill-opacity="1" fill-rule="nonzero"/></g></g></g><g clip-path="url(#ffa4141f99)"><g clip-path="url(#11a778e989)"><g clip-path="url(#ba1c3586ba)"><path fill="#00507e" d="M 66.152344 28.480469 C 66.152344 28.480469 66.113281 28.488281 66.042969 28.5 C 65.972656 28.519531 65.871094 28.539062 65.746094 28.585938 C 65.492188 28.667969 65.144531 28.835938 64.785156 29.125 C 64.421875 29.414062 64.046875 29.824219 63.71875 30.335938 C 63.679688 30.402344 63.640625 30.464844 63.601562 30.53125 C 63.5625 30.597656 63.523438 30.671875 63.484375 30.738281 C 63.445312 30.808594 63.410156 30.882812 63.371094 30.953125 C 63.335938 31.027344 63.296875 31.101562 63.261719 31.179688 C 63.117188 31.480469 62.976562 31.804688 62.832031 32.140625 C 62.6875 32.476562 62.542969 32.808594 62.390625 33.128906 C 62.238281 33.449219 62.078125 33.753906 61.902344 34.039062 C 61.550781 34.601562 61.144531 35.058594 60.75 35.375 C 60.554688 35.53125 60.363281 35.660156 60.191406 35.753906 C 60.167969 35.769531 60.148438 35.78125 60.125 35.789062 C 60.105469 35.800781 60.082031 35.8125 60.0625 35.820312 C 60.019531 35.839844 59.980469 35.863281 59.941406 35.878906 C 59.902344 35.894531 59.867188 35.910156 59.832031 35.925781 C 59.8125 35.933594 59.796875 35.9375 59.777344 35.945312 C 59.761719 35.953125 59.746094 35.960938 59.726562 35.964844 C 59.664062 35.984375 59.605469 36.003906 59.554688 36.019531 C 59.503906 36.035156 59.457031 36.042969 59.421875 36.050781 C 59.351562 36.066406 59.316406 36.074219 59.316406 36.074219 C 59.316406 36.074219 59.347656 36.058594 59.414062 36.023438 C 59.445312 36.007812 59.484375 35.988281 59.527344 35.960938 C 59.574219 35.933594 59.625 35.902344 59.679688 35.867188 C 59.695312 35.859375 59.707031 35.847656 59.722656 35.839844 C 59.738281 35.828125 59.753906 35.816406 59.765625 35.808594 C 59.796875 35.785156 59.828125 35.765625 59.863281 35.742188 C 59.894531 35.71875 59.925781 35.6875 59.960938 35.660156 C 59.976562 35.648438 59.996094 35.632812 60.011719 35.621094 C 60.03125 35.605469 60.050781 35.59375 60.066406 35.574219 C 60.207031 35.453125 60.359375 35.300781 60.511719 35.125 C 60.816406 34.773438 61.121094 34.304688 61.390625 33.753906 C 61.527344 33.476562 61.65625 33.175781 61.789062 32.859375 C 61.917969 32.542969 62.050781 32.210938 62.195312 31.867188 C 62.34375 31.527344 62.5 31.191406 62.671875 30.875 C 62.714844 30.796875 62.761719 30.71875 62.804688 30.640625 C 62.851562 30.566406 62.898438 30.492188 62.945312 30.417969 C 62.996094 30.34375 63.039062 30.273438 63.089844 30.203125 C 63.140625 30.132812 63.191406 30.0625 63.246094 29.996094 C 63.664062 29.46875 64.148438 29.078125 64.59375 28.835938 C 64.816406 28.714844 65.03125 28.632812 65.222656 28.574219 C 65.414062 28.519531 65.585938 28.492188 65.722656 28.480469 C 65.863281 28.464844 65.96875 28.46875 66.042969 28.472656 C 66.113281 28.476562 66.152344 28.480469 66.152344 28.480469 " fill-opacity="1" fill-rule="nonzero"/></g></g></g><g clip-path="url(#fd8aef083c)"><g clip-path="url(#bc51df65e1)"><g clip-path="url(#d016583a71)"><path fill="#00507e" d="M 58.539062 32.640625 C 58.539062 32.640625 58.53125 32.664062 58.515625 32.703125 C 58.507812 32.726562 58.5 32.75 58.488281 32.78125 C 58.476562 32.8125 58.464844 32.847656 58.449219 32.886719 C 58.386719 33.042969 58.285156 33.265625 58.136719 33.53125 C 58.101562 33.597656 58.058594 33.664062 58.015625 33.734375 C 57.96875 33.804688 57.921875 33.878906 57.871094 33.953125 C 57.820312 34.023438 57.765625 34.101562 57.707031 34.175781 C 57.675781 34.210938 57.648438 34.25 57.617188 34.289062 C 57.585938 34.328125 57.554688 34.367188 57.519531 34.402344 C 57.390625 34.558594 57.242188 34.710938 57.082031 34.863281 C 56.921875 35.011719 56.746094 35.160156 56.558594 35.296875 C 56.367188 35.4375 56.175781 35.558594 55.984375 35.667969 C 55.792969 35.777344 55.601562 35.867188 55.414062 35.949219 C 55.367188 35.96875 55.324219 35.988281 55.277344 36.007812 C 55.230469 36.023438 55.1875 36.042969 55.140625 36.058594 C 55.050781 36.09375 54.964844 36.121094 54.878906 36.148438 C 54.792969 36.175781 54.710938 36.199219 54.628906 36.21875 C 54.589844 36.230469 54.550781 36.238281 54.511719 36.25 C 54.492188 36.253906 54.472656 36.257812 54.453125 36.261719 C 54.433594 36.265625 54.414062 36.269531 54.398438 36.273438 C 54.101562 36.339844 53.855469 36.367188 53.6875 36.378906 C 53.648438 36.382812 53.609375 36.382812 53.578125 36.382812 C 53.542969 36.386719 53.515625 36.386719 53.496094 36.386719 C 53.449219 36.386719 53.425781 36.386719 53.425781 36.386719 C 53.425781 36.386719 53.515625 36.355469 53.671875 36.296875 C 53.828125 36.238281 54.050781 36.148438 54.316406 36.027344 C 54.332031 36.019531 54.347656 36.011719 54.367188 36.003906 C 54.382812 35.996094 54.398438 35.988281 54.417969 35.980469 C 54.453125 35.964844 54.488281 35.949219 54.523438 35.929688 C 54.59375 35.894531 54.667969 35.859375 54.746094 35.820312 C 54.820312 35.777344 54.898438 35.738281 54.976562 35.695312 C 55.015625 35.671875 55.058594 35.652344 55.097656 35.628906 C 55.136719 35.605469 55.179688 35.582031 55.21875 35.558594 C 55.382812 35.460938 55.554688 35.359375 55.726562 35.242188 C 55.898438 35.128906 56.074219 35.007812 56.25 34.878906 C 56.425781 34.75 56.59375 34.621094 56.753906 34.488281 C 56.914062 34.359375 57.066406 34.226562 57.207031 34.101562 C 57.242188 34.066406 57.277344 34.035156 57.308594 34.003906 C 57.34375 33.972656 57.378906 33.941406 57.410156 33.910156 C 57.476562 33.847656 57.539062 33.785156 57.597656 33.726562 C 57.660156 33.664062 57.714844 33.605469 57.769531 33.546875 C 57.824219 33.488281 57.878906 33.433594 57.925781 33.378906 C 58.121094 33.160156 58.277344 32.976562 58.378906 32.84375 C 58.480469 32.714844 58.539062 32.640625 58.539062 32.640625 " fill-opacity="1" fill-rule="nonzero"/></g></g></g></svg>